# xmcd CD database file
#
# Track frame offsets:
#	150
#	3236
#	21834
#	44013
#	60147
#	78678
#	95293
#	97218
#	107278
#	117946
#	145623
#	159724
#	161595
#	180657
#	201174
#	225002
#	242219
#	245308
#	249368
#	251047
#	254104
#	255582
#	258883
#	261556
#	264632
#	266960
#	273210
#	274867
#	277207
#	280267
#
# Disc length: 3938 seconds
#
# Revision: 0
# Processed by: cddbd v1.5.2PL0 Copyright (c) Steve Scherf et al.
# Submitted via: CDex 1.70beta2
#
DISCID=b40f601e
DTITLE=Nelson Willie - Always - Interview Disc
DYEAR=2004
DGENRE=Country
TTITLE0=Introduction
TTITLE1=It Always Will Be
TTITLE2=Willie On His Tunnel Surgery And Recovery
TTITLE3=Picture In A Frame
TTITLE4=Willie Talks About His Long Gone Days
TTITLE5=Overtime [w. Lucinda Williams]
TTITLE6=Always - Willie Nelson ID
TTITLE7=The Intend To Make It Always Will Be
TTITLE8=My Broken Heart Belongs To You
TTITLE9=Willie Talks About Trigger
TTITLE10=I Didn't Come Here (And I Ain't Leavin')
TTITLE11=Always - Willie Nelson ID
TTITLE12=Farm Aid
TTITLE13=Dreams Come True [w.Norah Jones]
TTITLE14=Willie On Meeting Norah Jones
TTITLE15=Texas
TTITLE16=Conclusion (Music Fades)
TTITLE17=On His Carpal Tunnel Syndrome
TTITLE18=Songwriting
TTITLE19=On Choosing Songs To Cover
TTITLE20=Do Willie and Toby Keith Ever Talk Politics?
TTITLE21=His Thoughts Going Into The Recording Of This CD
TTITLE22=On His Guitar Trigger
TTITLE23=On His Touring Bus
TTITLE24=On The Road Again
TTITLE25=What Is The Status Of American Farmer And Farm Aid?
TTITLE26=On Presidents He Especially Likes
TTITLE27=On Norah Jones And "Dreams Come True"
TTITLE28=On Texas and "Texas"
TTITLE29=Pretty Paper (Live)
EXTD=YEAR: 2004
EXTT0=
EXTT1=
EXTT2=
EXTT3=
EXTT4=
EXTT5=
EXTT6=
EXTT7=
EXTT8=
EXTT9=
EXTT10=
EXTT11=
EXTT12=
EXTT13=
EXTT14=
EXTT15=
EXTT16=
EXTT17=
EXTT18=
EXTT19=
EXTT20=
EXTT21=
EXTT22=
EXTT23=
EXTT24=
EXTT25=
EXTT26=
EXTT27=
EXTT28=
EXTT29=
PLAYORDER=
